HIERARCHY
ROOT root
{
	OFFSET 0.000000 0.000000 0.000000
	CHANNELS 6 Xposition Yposition Zposition Zrotation Yrotation Xrotation
	JOINT lhip
	{
		OFFSET 0.058581 -0.082280 -0.017664
		CHANNELS 3 Zrotation Yrotation Xrotation
		JOINT lknee
		{
			OFFSET 0.043451 -0.386469 0.008037
			CHANNELS 3 Zrotation Yrotation Xrotation
			JOINT lankle
			{
				OFFSET -0.014790 -0.426874 -0.037428
				CHANNELS 3 Zrotation Yrotation Xrotation
				JOINT ltoe
				{
					OFFSET 0.041054 -0.060286 0.122042
					CHANNELS 3 Zrotation Yrotation Xrotation
					End Site
					{
						OFFSET 0.000000 0.000000 0.000000
					}
				}
			}
		}
	}
	JOINT rhip
	{
		OFFSET -0.060310 -0.090513 -0.013543
		CHANNELS 3 Zrotation Yrotation Xrotation
		JOINT rknee
		{
			OFFSET -0.043257 -0.383688 -0.004843
			CHANNELS 3 Zrotation Yrotation Xrotation
			JOINT rankle
			{
				OFFSET 0.019056 -0.420046 -0.034562
				CHANNELS 3 Zrotation Yrotation Xrotation
				JOINT rtoe
				{
					OFFSET -0.034840 -0.062106 0.130323
					CHANNELS 3 Zrotation Yrotation Xrotation
					End Site
					{
						OFFSET 0.000000 0.000000 0.000000
					}
				}
			}
		}
	}
	JOINT lowerback
	{
		OFFSET 0.004439 0.124404 -0.038385
		CHANNELS 3 Zrotation Yrotation Xrotation
		JOINT upperback
		{
			OFFSET 0.004488 0.137956 0.026820
			CHANNELS 3 Zrotation Yrotation Xrotation
			JOINT chest
			{
				OFFSET -0.002265 0.056032 0.002855
				CHANNELS 3 Zrotation Yrotation Xrotation
				JOINT lowerneck
				{
					OFFSET -0.013390 0.211636 -0.033468
					CHANNELS 3 Zrotation Yrotation Xrotation
					JOINT upperneck
					{
						OFFSET 0.010113 0.088937 0.050410
						CHANNELS 3 Zrotation Yrotation Xrotation
						End Site
						{
							OFFSET 0.000000 0.000000 0.000000
						}
					}
				}
				JOINT lclavicle
				{
					OFFSET 0.071702 0.114000 -0.018898
					CHANNELS 3 Zrotation Yrotation Xrotation
					JOINT lshoulder
					{
						OFFSET 0.122921 0.045205 -0.019046
						CHANNELS 3 Zrotation Yrotation Xrotation
						JOINT lelbow
						{
							OFFSET 0.255332 -0.015649 -0.022946
							CHANNELS 3 Zrotation Yrotation Xrotation
							JOINT lwrist
							{
								OFFSET 0.265709 0.012698 -0.007375
								CHANNELS 3 Zrotation Yrotation Xrotation
								End Site
								{
									OFFSET 0.000000 0.000000 0.000000
								}
							}
						}
					}
				}
				JOINT rclavicle
				{
					OFFSET -0.082954 0.112472 -0.023707
					CHANNELS 3 Zrotation Yrotation Xrotation
					JOINT rshoulder
					{
						OFFSET -0.113228 0.046853 -0.008472
						CHANNELS 3 Zrotation Yrotation Xrotation
						JOINT relbow
						{
							OFFSET -0.260127 -0.014369 -0.031269
							CHANNELS 3 Zrotation Yrotation Xrotation
							JOINT rwrist
							{
								OFFSET -0.269108 0.006794 -0.006027
								CHANNELS 3 Zrotation Yrotation Xrotation
								End Site
								{
									OFFSET 0.000000 0.000000 0.000000
								}
							}
						}
					}
				}
			}
		}
	}
}
MOTION
Frames: 10
Frame Time: 0.033333
0.075287 0.137360 0.983435 43.660391 -0.678050 88.499176 2.987218 1.760530 5.376791 -1.605654 -4.282981 1.149372 2.756318 10.296680 -11.114934 0.000000 -0.000000 0.000000 -5.695997 -3.574667 -0.018786 -1.710023 0.521440 8.144110 2.231703 -6.060283 -9.497097 0.000000 -0.000000 0.000000 -0.228940 1.940384 1.873458 0.447342 -2.948471 10.471296 -2.138282 -1.241812 -4.692882 0.626108 0.939485 -5.052933 1.907911 -0.870343 13.603360 -31.523872 -1.497336 0.656280 -49.391971 -7.987885 8.586430 9.683027 -22.122775 -6.604066 -1.713331 -5.248865 -1.027571 30.956424 0.272547 7.380920 48.984354 3.327251 11.625574 -10.022204 28.871913 -3.320028 5.649679 6.028905 4.784645 
0.076530 0.140490 0.983351 45.698407 -0.982062 88.226909 2.632834 1.348955 5.135983 -1.742773 -5.608493 1.370872 2.915941 10.060787 -11.087836 0.000000 -0.000000 0.000000 -6.039523 -3.507505 0.283026 -1.942214 -0.397693 8.727671 2.327535 -7.106226 -9.699646 0.000000 -0.000000 0.000000 -0.182399 1.677353 2.698645 0.098372 -2.883679 9.549862 -1.910630 -1.279142 -4.512987 0.497831 0.468621 -5.252756 2.376587 -0.248633 14.126141 -31.412699 -2.564424 0.960459 -48.774052 -8.875833 8.595798 9.669564 -21.812945 -7.645816 -0.356709 -5.404243 -4.109686 30.014959 1.056524 7.915805 49.890725 3.819312 11.805389 -9.811557 28.793402 -5.375552 5.249941 6.358838 -0.041966 
0.077700 0.143744 0.983550 47.746032 -1.231387 87.668086 2.346828 0.858972 5.115674 -1.912377 -6.534439 1.750498 3.006918 9.562074 -10.960244 0.000000 -0.000000 0.000000 -6.239925 -3.669690 0.744680 -2.349104 -1.250116 9.483108 2.065341 -7.932565 -9.964247 0.000000 -0.000000 0.000000 -0.028704 1.769220 3.744210 -0.261064 -2.799704 8.828765 -1.746324 -1.435696 -4.508334 0.667476 0.001801 -5.086450 2.897358 0.525829 14.294875 -31.457385 -3.959185 1.497222 -48.120232 -9.905333 8.479268 9.989975 -21.809903 -9.517812 2.157986 -5.475380 -6.939307 29.487277 2.289923 8.325886 50.826134 4.422537 11.925547 -9.705624 29.065799 -8.975638 4.054479 6.566068 -6.637585 
0.079528 0.148596 0.983230 50.254500 -1.616664 87.075271 1.853201 0.385797 5.086619 -2.185018 -7.829189 2.026503 3.085649 8.985371 -10.838660 0.000000 -0.000000 0.000000 -6.747500 -4.300384 0.915130 -2.761916 -2.022409 10.892410 1.882966 -8.710150 -10.452997 0.000000 -0.000000 0.000000 0.199431 2.020914 4.440691 -0.696282 -2.891332 8.329795 -1.751163 -1.289791 -4.356297 1.118909 -0.226660 -5.158316 3.708793 1.112920 14.548938 -31.092005 -5.633330 1.958979 -47.704039 -11.947184 7.794001 10.438285 -21.903016 -13.112348 3.068778 -4.523796 -11.935585 28.791680 4.489710 8.641839 52.365688 5.731930 12.137341 -9.999759 27.815516 -13.922618 3.543781 6.324563 -14.971540 
0.080564 0.151740 0.983252 51.863855 -1.778259 86.752395 1.589663 0.013631 5.060481 -2.266764 -8.589930 2.119668 3.096979 8.533063 -10.822403 0.000000 -0.000000 0.000000 -6.951452 -4.509783 0.968175 -3.053672 -2.751594 11.838740 1.781453 -9.263056 -10.676122 0.000000 -0.000000 0.000000 0.322549 2.107935 4.935203 -0.921891 -2.729168 7.881097 -1.635701 -1.262893 -4.330295 1.350270 -0.636843 -5.346525 4.291537 1.347742 14.870632 -31.017983 -6.678628 2.366921 -47.704366 -13.181281 7.401811 11.416549 -22.417754 -15.637278 4.319842 -4.036254 -14.719036 28.470885 5.787688 8.863327 53.144894 6.980809 12.103154 -9.964922 27.121549 -17.217328 3.130966 6.352506 -20.713913 
0.081606 0.156379 0.983079 53.809665 -2.091090 86.346583 1.193752 -0.487503 4.931508 -2.554244 -9.239632 2.467063 3.298905 7.894238 -10.652027 0.000000 -0.000000 0.000000 -7.366507 -4.807711 0.835278 -3.559843 -3.793733 13.378932 1.718962 -9.728519 -10.816101 0.000000 -0.000000 0.000000 0.221118 2.360110 5.441594 -1.043672 -2.511460 7.518963 -1.388147 -0.965082 -4.517425 1.656643 -1.130175 -5.411576 4.819424 1.192671 15.283776 -30.436030 -8.429083 2.459648 -47.962215 -14.982482 6.919619 12.263854 -22.632351 -19.367980 6.939635 -3.668802 -17.971962 27.984303 7.868908 9.174307 54.011836 8.858856 12.068740 -10.349091 26.192328 -20.958103 2.292138 6.142916 -25.845199 
0.082466 0.161139 0.983014 55.620968 -2.236740 85.905412 0.896808 -0.876685 5.003506 -2.601497 -9.972448 2.397466 3.296506 7.199903 -10.514041 0.000000 -0.000000 0.000000 -7.648950 -5.125991 0.580637 -3.979879 -4.594333 15.069878 1.818381 -10.163310 -10.842566 0.000000 -0.000000 0.000000 0.313787 2.647597 5.820632 -1.056198 -2.329806 7.112115 -1.193722 -0.847292 -4.670400 1.994097 -1.250577 -5.420864 5.258829 0.876360 15.898968 -29.701216 -10.407771 2.718112 -47.871534 -17.283468 6.056587 12.727330 -22.414654 -22.031016 8.689497 -2.820478 -20.450795 27.481667 10.268524 9.216492 54.377156 11.202227 12.315274 -10.921233 25.568631 -22.403381 1.078869 5.135392 -27.109369 
0.083205 0.165624 0.983122 57.329331 -2.422819 85.415917 0.598296 -1.271249 5.014302 -2.903362 -10.302184 2.691433 3.404762 6.578231 -10.192143 0.000000 -0.000000 0.000000 -8.014720 -5.436807 0.097903 -4.499511 -5.268564 17.262097 2.045750 -10.424177 -10.921105 0.000000 -0.000000 0.000000 0.295844 2.922604 6.115205 -1.010242 -2.155554 6.480135 -1.062120 -0.568298 -4.747326 2.563602 -1.548479 -5.094295 5.452805 0.305839 17.111193 -28.385528 -12.559900 2.870159 -47.685339 -19.702936 4.795013 13.074516 -22.686722 -24.447155 9.948460 -2.009191 -22.372609 26.217984 12.870822 9.365171 54.469477 13.762324 12.884885 -11.323300 26.118615 -21.286330 0.447901 4.186224 -25.287423 
0.083725 0.170701 0.983902 58.616152 -2.519272 84.947859 0.304239 -1.671406 5.099188 -3.031657 -10.559718 2.782622 3.565406 6.133892 -10.035020 0.000000 -0.000000 0.000000 -8.211586 -5.337895 -0.773238 -5.218622 -5.741864 19.904857 2.263221 -10.542589 -10.663641 0.000000 -0.000000 0.000000 0.389753 3.003881 6.157390 -0.839055 -1.993466 6.191375 -1.027781 -0.291012 -5.229769 3.028191 -1.862639 -3.840724 5.573251 -0.124718 18.603283 -27.060919 -14.574930 2.793705 -47.050435 -21.718172 3.459188 13.781388 -23.408598 -27.655082 10.161979 -1.676741 -23.984702 24.718735 15.543590 9.038326 53.594927 16.411832 13.489949 -11.410416 27.398560 -19.352399 1.006165 3.696410 -21.859026 
0.085536 0.176374 0.984896 59.457558 -2.657865 84.363539 -0.664934 -2.913207 5.729613 -2.443109 -11.279988 2.501115 1.977456 7.377685 -10.367678 0.000000 -0.000000 0.000000 -8.165266 -4.156818 -1.837787 -5.553666 -3.409845 23.150759 5.489729 -13.716368 -11.625351 0.000000 -0.000000 0.000000 0.462538 2.757906 4.854332 -0.801443 -1.317683 5.385253 -0.718328 0.605608 -2.727491 3.162342 -2.888852 -2.427540 5.967395 -0.418199 18.889831 -24.798786 -16.953650 2.191270 -45.822204 -26.173822 5.841848 16.957903 -23.580562 -33.634879 13.440052 1.018710 -31.325848 22.152383 18.877998 7.369771 50.206551 19.637588 15.383899 -12.050625 32.185433 -17.398729 1.240852 -0.682684 -22.545736 
